<svg id="visual" viewBox="0 0 900 600" width="900" height="600" xmlns="http://www.w3.org/2000/svg" xmlns:xlink="http://www.w3.org/1999/xlink" version="1.1"><rect x="0" y="0" width="900" height="600" fill="#f1f4f6"></rect><path d="M0 275L30 261.2C60 247.3 120 219.7 180 208C240 196.3 300 200.7 360 213.3C420 226 480 247 540 251C600 255 660 242 720 227.3C780 212.7 840 196.3 870 188.2L900 180L900 0L870 0C840 0 780 0 720 0C660 0 600 0 540 0C480 0 420 0 360 0C300 0 240 0 180 0C120 0 60 0 30 0L0 0Z" fill="#F2E9FD" stroke-linecap="round" stroke-linejoin="miter"></path></svg>